<svg xmlns:rdf="http://www.w3.org/1999/02/22-rdf-syntax-ns#" xmlns="http://www.w3.org/2000/svg" height="193" width="500" version="1.1" xmlns:cc="http://creativecommons.org/ns#" xmlns:dc="http://purl.org/dc/elements/1.1/" viewBox="0 0 500.00001 193">
 <g transform="translate(0 -859.36)">
  <g transform="matrix(1.5699 0 0 1.5699 -286.58 126.01)">
   <g transform="matrix(4.0179 0 0 -4.0179 185.69 565.95)">
    <path d="m0 0h.895v-.734h1.261c.277 0 .469.045.575.134.106.091.16.276.16.552v.4h.895v-.767c0-.469-.134-.786-.4-.95-.266-.166-.665-.248-1.198-.248h-1.293v-1.453h3.242v-.879h-4.904l-.016.879h.432c.16 0 .258.037.295.111s.056.225.056.447v2.508z" fill="#e6e6e6"/>
   </g>
   <g transform="matrix(4.0179 0 0 -4.0179 217.01 578.27)">
    <path d="m0 0v2.236c-.256 0-.511-.041-.767-.12-.255-.080-.482-.194-.679-.343-.197-.150-.356-.331-.479-.544-.122-.212-.183-.447-.183-.702.010-.256.082-.408.215-.455.133-.049.285-.072.456-.072h1.437zm1.885-.879h-5.878l-.016.879h1.086c-.128.234-.186.474-.176.719.011.276.091.552.24.83.149.277.38.527.694.751.314.223.722.407 1.223.551.5.143 1.112.215 1.836.215v-2.619c0-.191.022-.314.064-.367.042-.054.154-.080.335-.080h.56l.032-.879z" fill="#e6e6e6"/>
   </g>
   <g transform="matrix(4.0179 0 0 -4.0179 241.77 563.32)">
    <path d="m0 0 .575.56.559-.56-.559-.574-.575.574zm-.942.943.559.575.575-.575-.575-.559-.559.559zm-1.006-.943.574.56.560-.56-.560-.574-.574.574zm-1.821-.654h.894v-.926c.149.223.383.401.703.535.319.133.655.135 1.006.008.213-.086.392-.19.535-.313.144-.122.264-.257.36-.406.148.213.33.399.542.559.213.16.485.244.815.256.309.009.581-.038.815-.145.234-.105.428-.255.583-.447.154-.192.271-.418.351-.678.08-.262.12-.535.12-.823v-.687h.719v-.879h-.719-.032v-1.996h-.879v1.996 1.662c0 .362-.098.644-.295.846s-.418.304-.663.304c-.319 0-.567-.118-.742-.352-.176-.234-.264-.501-.264-.798v-2.14h-.926v2.172c-.011.373-.123.652-.336.838s-.444.277-.694.271c-.251-.005-.479-.117-.687-.335s-.312-.546-.312-.981v-1.487h-1.693l-.016.879h.783v.879l.032 2.188z" fill="#e6e6e6"/>
   </g>
   <g transform="matrix(4.0179 0 0 -4.0179 271.94 578.27)">
    <path d="m0 0v2.236c-.256 0-.511-.041-.767-.12-.255-.080-.482-.194-.679-.343-.197-.150-.356-.331-.479-.544-.122-.212-.183-.447-.183-.702.010-.256.082-.408.215-.455.133-.049.285-.072.456-.072h1.437zm1.885-.879h-5.878l-.016.879h1.086c-.128.234-.186.474-.176.719.011.276.091.552.24.83.149.277.38.527.694.751.314.223.722.407 1.223.551.5.143 1.112.215 1.836.215v-2.619c0-.191.022-.314.064-.367.042-.054.154-.080.335-.080h.56l.032-.879z" fill="#e6e6e6"/>
   </g>
   <g transform="matrix(4.0179 0 0 -4.0179 294.78 578.27)">
    <path d="m0 0c-.16.244-.346.521-.559.83s-.431.58-.655.815c-.223.234-.434 0.4-.631.496-.197.095-.354.052-.471-.129-.181-.277-.245-.575-.192-.895.043-.340.154-.596.336-.765.181-.171.394-.286.639-.344.244-.059.505-.080.783-.065.276.017.526.036.750.057m.814 6.932h.895v-6.932h.798v-.879h-6.596l-.016.879h1.246c-.17.139-.301.312-.391.52-.091.207-.144.422-.16.646-.016.223.008.452.072.687.064.233.16.447.287.638.202.31.418.501.647.575.229.075.461.073.695-.007s.471-.224.711-.432c.239-.207.468-.439.686-.694.219-.256.421-.519.607-.791s.349-.514.488-.727l.031 6.517z" fill="#e6e6e6"/>
   </g>
   <g transform="matrix(4.0179 0 0 -4.0179 319.87 578.27)">
    <path d="m0 0v2.236c-.256 0-.511-.041-.767-.12-.255-.080-.482-.194-.679-.343-.197-.150-.356-.331-.479-.544-.122-.212-.183-.447-.183-.702.010-.256.082-.408.215-.455.133-.049.285-.072.456-.072h1.437zm1.885-.879h-5.878l-.016.879h1.086c-.128.234-.186.474-.176.719.011.276.091.552.24.83.149.277.38.527.694.751.314.223.722.407 1.223.551.5.143 1.112.215 1.836.215v-2.619c0-.191.022-.314.064-.367.042-.054.154-.080.335-.080h.56l.032-.879z" fill="#e6e6e6"/>
   </g>
   <g transform="matrix(4.0179 0 0 -4.0179 329.5 565.95)">
    <path d="m0 0h.894v-.543c.149.213.383.367.703.463s.655.080 1.006-.048c.298-.117.535-.279.711-.487.176-.207.304-.445.383-.711.080-.266.128-.551.144-.854s.018-.599.008-.886h.751v-.879h-.783v-.032-1.964h-.894v3.929c0 .372-.107.657-.32.854s-.444.293-.694.287c-.251-.005-.482-.117-.695-.335-.214-.218-.320-.551-.320-.998v-1.741h-1.693l-.016.879h.783v1.133l.032 1.933z" fill="#e6e6e6"/>
   </g>
   <g transform="matrix(4.0179 0 0 -4.0179 366.78 578.27)">
    <path d="m0 0c.181 0 .312.048.392.144.079.095.135.217.167.367.032.149.053.322.064.518.01.198.032.395.064.592s.09.391.175.583c.086.192.224.357.416.495.181.127.362.221.543.28.181.058.383.087.607.087h.511v-.894h-.527c-.245 0-.453-.082-.623-.248-.170-.164-.240-.369-.208-.614.011-.160.066-.318.168-.472.101-.154.226-.293.376-.414.148-.123.311-.222.486-.297.176-.074.344-.117.504-.127h1.102v-.879h-.751c-.543 0-.98.117-1.31.352-.330.234-.601.527-.814.879 0-.161-.038-.315-.112-.463-.075-.151-.168-.281-.280-.393-.112-.111-.237-.201-.375-.271-.138-.069-.271-.104-.399-.104h-1.885l-.016.879h.783v6.932h.894v-6.916l.016-.016h.032z" fill="#e6e6e6"/>
   </g>
   <g transform="matrix(4.0179 0 0 -4.0179 398.87 578.27)">
    <path d="m0 0v2.236c-.256 0-.511-.041-.767-.12-.255-.080-.482-.194-.679-.343-.197-.150-.356-.331-.479-.544-.122-.212-.183-.447-.183-.702.010-.256.082-.408.215-.455.133-.049.285-.072.456-.072h1.437zm1.885-.879h-5.878l-.016.879h1.086c-.128.234-.186.474-.176.719.011.276.091.552.24.83.149.277.38.527.694.751.314.223.722.407 1.223.551.5.143 1.112.215 1.836.215v-2.619c0-.191.022-.314.064-.367.042-.054.154-.080.335-.080h.56l.032-.879z" fill="#e6e6e6"/>
   </g>
   <g transform="matrix(4.0179 0 0 -4.0179 408.36 565.95)">
    <path d="m0 0h.895v-.734h1.261c.277 0 .469.045.575.134.106.091.16.276.16.552v.4h.895v-.767c0-.469-.134-.786-.4-.95-.266-.166-.665-.248-1.198-.248h-1.293v-1.453h3.242v-.879h-4.904l-.016.879h.432c.16 0 .258.037.295.111s.056.225.056.447v2.508z" fill="#e6e6e6"/>
   </g>
   <g transform="matrix(4.0179 0 0 -4.0179 451.94 578.27)">
    <path d="m0 0h.368c.138 0 .295.005.471.016.175.010.332.045.471.103.138.059.229.152.272.279.042.129-.006.315-.145.560-.106.181-.239.301-.398.359-.161.059-.315.048-.464-.032s-.279-.226-.391-.439-.173-.494-.184-.846m-4.647 3.082.574.56.559-.56-.559-.559-.574.559zm-.863-3.082h.367c.139 0 .296.005.472.016.175.01.332.045.471.103.138.059.228.152.271.279.043.129-.006.315-.144.56-.106.181-.239.301-.399.359-.160.059-.314.048-.463-.032s-.280-.226-.392-.439c-.111-.213-.173-.494-.183-.846m-.511 3.082.559.56.575-.56-.575-.559-.559.559zm-1.022-3.082h.67c0 .447.067.822.2 1.126s.303.546.511.727c.208.18.439.295.695.342.256.049.503.038.743-.031.239-.069.455-.197.646-.383.192-.187.33-.424.416-.711.096-.341.114-.633.056-.879-.059-.245-.163-.447-.312-.607-.149-.159-.327-.276-.535-.351s-.407-.112-.599-.112h-.846c.117-.373.314-.66.591-.862.276-.202.567-.306.87-.312.304-.006.591.094.863.296.271.202.46.522.567.958.042.149.069.287.079.416.011.127.016.255.016.383h1.55c0 .447.066.822.199 1.126s.304.546.512.727c.207.18.439.295.694.342.256.049.503.038.743-.031.239-.069.455-.197.647-.383.192-.187.330-.424.415-.711.096-.341.114-.633.056-.879-.059-.245-.162-.447-.312-.607-.149-.159-.327-.276-.534-.351-.208-.075-.408-.112-0.6-.112h-.846c.117-.373.314-.66.591-.862.276-.202.567-.306.87-.312.304-.006.592.094.863.296.272.202.46.522.567.958.042.149.069.287.08.416.01.127.016.255.016.383h1.15v-.879h-.368c-.074-.393-.205-.758-.391-1.094s-.477-.583-.870-.742c-.405-.160-.791-.232-1.159-.217-.367.017-.702.108-1.005.272-.304.166-.565.4-.783.703-.218.304-.37.663-.455 1.078h-.847c-.075-.393-.205-.758-.391-1.094-.187-.336-.477-.583-.871-.742-.404-.16-.79-.232-1.158-.217-.367.017-.702.108-1.006.272-.303.166-.565.4-.782.703-.219.304-.371.663-.455 1.078h-.768l.017.879z" fill="#e6e6e6"/>
   </g>
   <g transform="matrix(4.0179 0 0 -4.0179 486.27 563.32)">
    <path d="m0 0 .575.56.559-.56-.559-.574-.575.574zm-.942.943.559.575.575-.575-.575-.559-.559.559zm-1.006-.943.574.56.560-.56-.560-.574-.574.574zm-1.821-.654h.894v-.926c.149.223.383.401.703.535.319.133.655.135 1.006.008.213-.086.392-.19.535-.313.144-.122.264-.257.36-.406.148.213.33.399.542.559.213.16.485.244.815.256.309.009.581-.038.815-.145.234-.105.428-.255.583-.447.154-.192.271-.418.351-.678.08-.262.12-.535.12-.823v-.687h.719v-.879h-.719-.032v-1.996h-.879v1.996 1.662c0 .362-.098.644-.295.846s-.418.304-.663.304c-.319 0-.567-.118-.742-.352-.176-.234-.264-.501-.264-.798v-2.14h-.926v2.172c-.011.373-.123.652-.336.838s-.444.277-.694.271c-.251-.005-.479-.117-.687-.335s-.312-.546-.312-.981v-1.487h-1.693l-.016.879h.783v.879l.032 2.188z" fill="#e6e6e6"/>
   </g>
   <g transform="matrix(4.0179 0 0 -4.0179 370.67 524.55)">
    <path d="m0 0c-4.248-1.973-9.291-.128-11.264 4.12-1.652 3.557-.625 7.67 2.246 10.072-4.508-2.213-6.442-7.633-4.316-12.213 2.155-4.64 7.664-6.656 12.304-4.5 2.858 1.327 4.717 3.925 5.223 6.808-0.8-1.826-2.242-3.382-4.193-4.287" fill="#e6e6e6"/>
   </g>
   <g transform="matrix(4.0179 0 0 -4.0179 355.19 501.72)">
    <path d="m0 0-.905.541-.824-.655.234 1.026-.878.58 1.049.097.282 1.015l.414-.969 1.053.045-.794-.694.369-.986z" fill="#e6e6e6"/>
   </g>
  </g>
 </g>
</svg>
